<svg width="186" height="149" viewBox="0 0 186 149" fill="none" xmlns="http://www.w3.org/2000/svg">
<path d="M128.894 64.8727C108.45 64.8727 91.818 81.5272 91.818 101.998C91.818 122.469 108.45 139.124 128.894 139.124C149.337 139.124 165.969 122.469 165.969 101.998C165.969 81.5272 149.337 64.8727 128.894 64.8727ZM132.729 120.54V125.042H125.058V120.886L119.617 120.419L120.272 112.766L128.688 113.488C128.971 113.512 129.211 113.512 129.403 113.487C131.299 113.237 132.729 111.6 132.729 109.679C132.729 107.562 131.009 105.839 128.894 105.839C122.549 105.839 117.387 100.67 117.387 94.317C117.387 91.7431 118.217 89.3077 119.787 87.2745C121.147 85.5124 122.992 84.2279 125.058 83.5153V78.9548H132.729V83.3051L138.385 84.1142L137.301 91.7183L129.46 90.5968C128.049 90.3948 126.667 90.922 125.856 91.9725C125.334 92.6479 125.058 93.4588 125.058 94.317C125.058 96.4347 126.779 98.1576 128.894 98.1576C135.238 98.1576 140.4 103.326 140.4 109.679C140.4 114.626 137.231 118.942 132.729 120.54Z" fill="#9CC48E"/>
<path d="M109.672 25.4835H20.3245V39.8104H109.672V25.4835Z" fill="#3C3C3B"/>
<path d="M99.3625 2.56036H10.0154V16.8873H99.3625V2.56036Z" fill="#9CC48E"/>
<path d="M77.2039 94.2527H20.3245V108.58H76.6108C76.2073 106.629 75.9946 104.637 75.9946 102.61C75.9946 99.7487 76.4114 96.9538 77.2039 94.2527Z" fill="#9CC48E"/>
<path d="M78.0141 117.176H10.0154V131.503H88.0529C83.4756 127.275 80.0268 122.427 78.0141 117.176Z" fill="#3C3C3B"/>
<path d="M10.0154 48.4066V62.7335H98.7591C98.9591 62.6229 99.1605 62.5136 99.3625 62.4047V48.4066H10.0154Z" fill="#9CC48E"/>
<path d="M10.0154 71.3296V85.6565H79.0405C81.5862 80.3264 85.6364 75.4694 90.8416 71.3296H10.0154Z" fill="#3C3C3B"/>
<path d="M126.076 63.9999C105.632 63.9999 89 80.6544 89 101.125C89 121.596 105.632 138.251 126.076 138.251C146.519 138.251 163.151 121.596 163.151 101.125C163.151 80.6544 146.519 63.9999 126.076 63.9999ZM129.911 119.668V124.169H122.24V120.013L116.799 119.546L117.454 111.893L125.87 112.615C126.153 112.639 126.394 112.639 126.585 112.614C128.481 112.364 129.911 110.728 129.911 108.807C129.911 106.689 128.191 104.966 126.076 104.966C119.731 104.966 114.569 99.7974 114.569 93.4443C114.569 90.8704 115.399 88.4349 116.969 86.4017C118.329 84.6397 120.174 83.3551 122.24 82.6426V78.082H129.911V82.4324L135.567 83.2414L134.483 90.8455L126.642 89.7241C125.231 89.5221 123.849 90.0492 123.038 91.0998C122.516 91.7752 122.24 92.5861 122.24 93.4443C122.24 95.562 123.961 97.2849 126.076 97.2849C132.42 97.2849 137.582 102.454 137.582 108.807C137.582 113.753 134.413 118.07 129.911 119.668Z" fill="#3C3C3B"/>
</svg>
