<svg width="124" height="126" viewBox="0 0 124 126" fill="none" xmlns="http://www.w3.org/2000/svg">
<path d="M123.269 39.7382C123.269 34.3735 122.214 29.1745 120.149 24.2619C118.145 19.53 115.282 15.2804 111.635 11.6336C107.988 7.98682 103.739 5.12362 99.007 3.11938C94.1094 1.03979 88.8953 0 83.5306 0C78.1659 0 72.9669 1.05486 68.0543 3.11938C63.3226 5.12362 59.0729 7.98682 55.426 11.6336C51.7792 15.2804 48.916 19.53 46.9118 24.2619C44.8322 29.1594 43.7924 34.3735 43.7924 39.7382C43.7924 46.4441 45.4802 53.0144 48.69 58.8614L1.11565 106.39C0.0155765 107.491 -0.331021 109.163 0.347105 110.746C0.48273 111.077 0.708773 111.379 0.964954 111.635L11.6191 122.289C11.8753 122.545 12.1766 122.756 12.5082 122.907C14.0905 123.585 15.7632 123.253 16.8633 122.138L23.4486 115.553L32.9273 125.031C33.1835 125.287 33.4849 125.498 33.8163 125.649C35.3986 126.327 37.0714 125.996 38.1713 124.881L48.6748 114.377C48.9309 114.121 49.1419 113.82 49.2926 113.488C49.9707 111.906 49.6392 110.233 48.5241 109.133L39.1961 99.8051L64.3922 74.5939C70.2241 77.8037 76.8095 79.4915 83.5154 79.4915C88.8801 79.4915 94.0791 78.4366 98.9916 76.3721C103.723 74.3679 107.973 71.5047 111.62 67.8578C115.267 64.2112 118.13 59.9616 120.134 55.2296C122.214 50.3019 123.269 45.1029 123.269 39.7382ZM97.455 53.6775C93.7328 57.3996 88.7748 59.4491 83.5157 59.4491C78.2565 59.4491 73.2984 57.3996 69.5764 53.6775C65.8543 49.9553 63.7898 44.9975 63.7898 39.7382C63.7898 34.4639 65.8392 29.5211 69.5614 25.7989C73.2835 22.0768 78.2415 20.0273 83.5006 20.0273C88.7599 20.0273 93.7177 22.0768 97.4399 25.7989C101.162 29.5211 103.212 34.479 103.212 39.7382C103.242 44.9975 101.192 49.9553 97.455 53.6775Z" fill="#3C3C3B"/>
</svg>
