<svg width="161" height="52" viewBox="0 0 161 52" fill="none" xmlns="http://www.w3.org/2000/svg">
<path d="M32.9023 16.6777H19.1914V22.1797H31.7773V26.6797H19.1914V33.3418H33.5352V38H13.9004V12.0898H32.9023V16.6777ZM37.7539 12.0898H43.2559V28.0156C43.2559 29.7969 43.4668 31.0977 43.8887 31.918C44.5449 33.3711 45.9746 34.0977 48.1777 34.0977C50.3691 34.0977 51.793 33.3711 52.4492 31.918C52.8711 31.0977 53.082 29.7969 53.082 28.0156V12.0898H58.584V28.0156C58.584 30.7695 58.1562 32.9141 57.3008 34.4492C55.707 37.2617 52.666 38.668 48.1777 38.668C43.6895 38.668 40.6426 37.2617 39.0371 34.4492C38.1816 32.9141 37.7539 30.7695 37.7539 28.0156V12.0898ZM69.1836 16.5898V23.5508H75.3184C76.5371 23.5508 77.4512 23.4102 78.0605 23.1289C79.1387 22.6367 79.6777 21.6641 79.6777 20.2109C79.6777 18.6406 79.1562 17.5859 78.1133 17.0469C77.5273 16.7422 76.6484 16.5898 75.4766 16.5898H69.1836ZM76.6016 12.0898C78.418 12.125 79.8125 12.3477 80.7852 12.7578C81.7695 13.168 82.6016 13.7715 83.2812 14.5684C83.8438 15.2246 84.2891 15.9512 84.6172 16.748C84.9453 17.5449 85.1094 18.4531 85.1094 19.4727C85.1094 20.7031 84.7988 21.916 84.1777 23.1113C83.5566 24.2949 82.5312 25.1328 81.1016 25.625C82.2969 26.1055 83.1406 26.791 83.6328 27.6816C84.1367 28.5605 84.3887 29.9082 84.3887 31.7246V33.4648C84.3887 34.6484 84.4355 35.4512 84.5293 35.873C84.6699 36.541 84.998 37.0332 85.5137 37.3496V38H79.5547C79.3906 37.4258 79.2734 36.9629 79.2031 36.6113C79.0625 35.8848 78.9863 35.1406 78.9746 34.3789L78.9395 31.9707C78.916 30.3184 78.6113 29.2168 78.0254 28.666C77.4512 28.1152 76.3672 27.8398 74.7734 27.8398H69.1836V38H63.8926V12.0898H76.6016Z" fill="#3C3C3B"/>
<path d="M111.699 38H106.32V12.0898H111.699V38ZM135.588 12.0898V16.6777H127.836V38H122.387V16.6777H114.6V12.0898H135.588ZM153.553 12.0898H159.688L151.021 28.2617V38H145.607V28.2617L136.643 12.0898H143.023L148.402 23.375L153.553 12.0898Z" fill="#ACACAC"/>
<rect x="2" y="2" width="94" height="48" rx="4" stroke="#9CC48E" stroke-width="4"/>
</svg>
