<?xml version="1.0" encoding="utf-8"?>
<svg viewBox="0 0 256 256" width="256" height="256" xmlns="http://www.w3.org/2000/svg">
  <path d="M 249.686 8.476 C 246.317 5.564 213.322 19.028 209.18 20.663 L 25.459 92.246 C 16.862 95.623 21.556 119.992 28.78 125.749 C 30.274 126.94 32.032 127.757 33.906 128.132 L 73.593 137.468 L 72.623 200.64 C 72.572 205.509 74.603 220.522 79.121 222.337 C 80.599 222.956 91.584 226.51 93.187 226.515 C 96.352 226.505 109.937 220.819 112.153 218.56 L 140.466 186.418 L 175.275 217.003 C 177.449 218.934 197.151 234.857 200.059 234.86 C 201.323 234.858 202.228 233.983 203.431 233.593 C 207.466 232.313 206.874 230.018 207.8 225.887 L 246.09 48.055 C 247.091 43.717 253.064 11.376 249.686 8.476 Z M 52.653 109.481 C 52.448 107.702 49.843 105.121 51.526 104.511 L 207.568 41.041 L 93.798 119.031 L 57.063 111.851 C 55.298 111.546 52.764 111.268 52.653 109.481 Z M 98.828 202.813 C 96.651 204.99 92.933 203.994 92.136 201.02 C 92.046 200.682 92 200.334 92 199.984 L 92 143.72 L 127.064 174.577 L 98.828 202.813 Z M 229.394 47.481 L 189.954 198.201 C 189.277 201.155 181.466 203.721 179.191 201.719 L 114.009 138.815 L 221.444 43.919 C 224.712 40.832 227.833 44.213 229.394 47.481 Z" style="fill-rule: nonzero; vector-effect: non-scaling-stroke; stroke-width: 50px; stroke-opacity: 0; stroke-dashoffset: -2px; stroke: rgb(194, 223, 100); paint-order: stroke;"/>
</svg>